<mxfile host="app.diagrams.net" modified="2021-05-24T14:17:05.001Z" agent="5.0 (Windows NT 10.0; Win64; x64) AppleWebKit/537.36 (KHTML, like Gecko) Chrome/90.0.4430.212 Safari/537.36" etag="iNvDCPPpvoDuDgTGtqjQ" version="14.7.0" type="github">
  <diagram id="kgpKYQtTHZ0yAKxKKP6v" name="Page-1">
    <mxGraphModel dx="981" dy="526" grid="1" gridSize="10" guides="1" tooltips="1" connect="1" arrows="1" fold="1" page="1" pageScale="1" pageWidth="850" pageHeight="1100" math="0" shadow="0">
      <root>
        <mxCell id="0" />
        <mxCell id="1" parent="0" />
        <mxCell id="3nuBFxr9cyL0pnOWT2aG-1" value="Candidate" style="shape=umlLifeline;perimeter=lifelinePerimeter;container=1;collapsible=0;recursiveResize=0;rounded=0;shadow=0;strokeWidth=1;" parent="1" vertex="1">
          <mxGeometry x="120" y="80" width="100" height="360" as="geometry" />
        </mxCell>
        <mxCell id="3nuBFxr9cyL0pnOWT2aG-2" value="" style="points=[];perimeter=orthogonalPerimeter;rounded=0;shadow=0;strokeWidth=1;" parent="3nuBFxr9cyL0pnOWT2aG-1" vertex="1">
          <mxGeometry x="45" y="70" width="10" height="190" as="geometry" />
        </mxCell>
        <mxCell id="3nuBFxr9cyL0pnOWT2aG-3" value="dispatch" style="verticalAlign=bottom;startArrow=oval;endArrow=block;startSize=8;shadow=0;strokeWidth=1;" parent="3nuBFxr9cyL0pnOWT2aG-1" target="3nuBFxr9cyL0pnOWT2aG-2" edge="1">
          <mxGeometry relative="1" as="geometry">
            <mxPoint x="-15" y="70" as="sourcePoint" />
          </mxGeometry>
        </mxCell>
        <mxCell id="3nuBFxr9cyL0pnOWT2aG-4" value="" style="points=[];perimeter=orthogonalPerimeter;rounded=0;shadow=0;strokeWidth=1;" parent="3nuBFxr9cyL0pnOWT2aG-1" vertex="1">
          <mxGeometry x="50" y="120" width="10" height="100" as="geometry" />
        </mxCell>
        <mxCell id="3nuBFxr9cyL0pnOWT2aG-5" value="CandidateView" style="shape=umlLifeline;perimeter=lifelinePerimeter;container=1;collapsible=0;recursiveResize=0;rounded=0;shadow=0;strokeWidth=1;" parent="1" vertex="1">
          <mxGeometry x="470" y="80" width="100" height="300" as="geometry" />
        </mxCell>
        <mxCell id="3nuBFxr9cyL0pnOWT2aG-6" value="" style="points=[];perimeter=orthogonalPerimeter;rounded=0;shadow=0;strokeWidth=1;" parent="3nuBFxr9cyL0pnOWT2aG-5" vertex="1">
          <mxGeometry x="45" y="80" width="10" height="180" as="geometry" />
        </mxCell>
        <mxCell id="3nuBFxr9cyL0pnOWT2aG-7" value="return" style="verticalAlign=bottom;endArrow=open;dashed=1;endSize=8;exitX=-0.221;exitY=0.664;shadow=0;strokeWidth=1;exitDx=0;exitDy=0;exitPerimeter=0;" parent="1" source="3nuBFxr9cyL0pnOWT2aG-6" target="3nuBFxr9cyL0pnOWT2aG-2" edge="1">
          <mxGeometry relative="1" as="geometry">
            <mxPoint x="275" y="236" as="targetPoint" />
            <Array as="points">
              <mxPoint x="420" y="280" />
            </Array>
          </mxGeometry>
        </mxCell>
        <mxCell id="3nuBFxr9cyL0pnOWT2aG-8" value="Interested PositionÂ " style="verticalAlign=bottom;endArrow=block;entryX=0;entryY=0;shadow=0;strokeWidth=1;" parent="1" source="3nuBFxr9cyL0pnOWT2aG-2" target="3nuBFxr9cyL0pnOWT2aG-6" edge="1">
          <mxGeometry relative="1" as="geometry">
            <mxPoint x="275" y="160" as="sourcePoint" />
            <mxPoint as="offset" />
          </mxGeometry>
        </mxCell>
        <mxCell id="3nuBFxr9cyL0pnOWT2aG-9" value="Avaliable jobs with interested position" style="verticalAlign=bottom;endArrow=block;shadow=0;strokeWidth=1;" parent="1" source="3nuBFxr9cyL0pnOWT2aG-6" target="3nuBFxr9cyL0pnOWT2aG-4" edge="1">
          <mxGeometry relative="1" as="geometry">
            <mxPoint x="240" y="200" as="sourcePoint" />
            <Array as="points">
              <mxPoint x="460" y="210" />
            </Array>
          </mxGeometry>
        </mxCell>
        <mxCell id="5Jcjkd6dHf1wGy3vwL0o-1" value="CandidateController" style="shape=umlLifeline;perimeter=lifelinePerimeter;container=1;collapsible=0;recursiveResize=0;rounded=0;shadow=0;strokeWidth=1;" parent="1" vertex="1">
          <mxGeometry x="670" y="80" width="140" height="300" as="geometry" />
        </mxCell>
        <mxCell id="5Jcjkd6dHf1wGy3vwL0o-2" value="" style="points=[];perimeter=orthogonalPerimeter;rounded=0;shadow=0;strokeWidth=1;" parent="5Jcjkd6dHf1wGy3vwL0o-1" vertex="1">
          <mxGeometry x="65" y="80" width="10" height="180" as="geometry" />
        </mxCell>
        <mxCell id="5Jcjkd6dHf1wGy3vwL0o-3" value="Position Combobox ActionListener" style="verticalAlign=bottom;endArrow=block;shadow=0;strokeWidth=1;" parent="1" source="3nuBFxr9cyL0pnOWT2aG-5" target="5Jcjkd6dHf1wGy3vwL0o-1" edge="1">
          <mxGeometry x="-0.0584" relative="1" as="geometry">
            <mxPoint x="520" y="170.0000000000001" as="sourcePoint" />
            <mxPoint x="690" y="170" as="targetPoint" />
            <mxPoint as="offset" />
            <Array as="points">
              <mxPoint x="610" y="170" />
            </Array>
          </mxGeometry>
        </mxCell>
        <mxCell id="5Jcjkd6dHf1wGy3vwL0o-12" value="updateJobComboBox" style="edgeStyle=orthogonalEdgeStyle;rounded=0;orthogonalLoop=1;jettySize=auto;html=1;" parent="1" source="5Jcjkd6dHf1wGy3vwL0o-8" target="3nuBFxr9cyL0pnOWT2aG-5" edge="1">
          <mxGeometry x="0.0584" y="-10" relative="1" as="geometry">
            <Array as="points">
              <mxPoint x="570" y="210" />
              <mxPoint x="570" y="210" />
            </Array>
            <mxPoint as="offset" />
          </mxGeometry>
        </mxCell>
        <mxCell id="5Jcjkd6dHf1wGy3vwL0o-8" value="" style="html=1;points=[];perimeter=orthogonalPerimeter;" parent="1" vertex="1">
          <mxGeometry x="735" y="180" width="10" height="40" as="geometry" />
        </mxCell>
        <mxCell id="5Jcjkd6dHf1wGy3vwL0o-9" value="getRelatedAdverts" style="edgeStyle=orthogonalEdgeStyle;html=1;align=left;spacingLeft=2;endArrow=block;rounded=0;entryX=1;entryY=0;" parent="1" edge="1">
          <mxGeometry relative="1" as="geometry">
            <mxPoint x="740" y="170" as="sourcePoint" />
            <Array as="points">
              <mxPoint x="770" y="170" />
            </Array>
            <mxPoint x="745" y="180" as="targetPoint" />
          </mxGeometry>
        </mxCell>
        <mxCell id="5Jcjkd6dHf1wGy3vwL0o-11" value="getRelatedPositionsFromAdverts" style="edgeStyle=orthogonalEdgeStyle;html=1;align=left;spacingLeft=2;endArrow=block;rounded=0;entryX=1.129;entryY=0.775;entryDx=0;entryDy=0;entryPerimeter=0;" parent="1" edge="1">
          <mxGeometry x="0.1135" relative="1" as="geometry">
            <mxPoint x="745" y="199.99" as="sourcePoint" />
            <Array as="points">
              <mxPoint x="745" y="190" />
              <mxPoint x="775" y="190" />
              <mxPoint x="775" y="211" />
            </Array>
            <mxPoint x="746.2900000000002" y="211" as="targetPoint" />
            <mxPoint as="offset" />
          </mxGeometry>
        </mxCell>
        <mxCell id="5Jcjkd6dHf1wGy3vwL0o-13" style="edgeStyle=orthogonalEdgeStyle;rounded=0;orthogonalLoop=1;jettySize=auto;html=1;" parent="1" source="3nuBFxr9cyL0pnOWT2aG-4" target="3nuBFxr9cyL0pnOWT2aG-5" edge="1">
          <mxGeometry relative="1" as="geometry">
            <Array as="points">
              <mxPoint x="380" y="240" />
              <mxPoint x="380" y="240" />
            </Array>
          </mxGeometry>
        </mxCell>
        <mxCell id="5Jcjkd6dHf1wGy3vwL0o-14" value="InterestedJob" style="edgeLabel;html=1;align=center;verticalAlign=middle;resizable=0;points=[];" parent="5Jcjkd6dHf1wGy3vwL0o-13" vertex="1" connectable="0">
          <mxGeometry x="0.0343" y="2" relative="1" as="geometry">
            <mxPoint x="-15" y="-8" as="offset" />
          </mxGeometry>
        </mxCell>
        <mxCell id="5Jcjkd6dHf1wGy3vwL0o-15" style="edgeStyle=orthogonalEdgeStyle;rounded=0;orthogonalLoop=1;jettySize=auto;html=1;" parent="1" source="3nuBFxr9cyL0pnOWT2aG-6" target="5Jcjkd6dHf1wGy3vwL0o-2" edge="1">
          <mxGeometry relative="1" as="geometry">
            <Array as="points">
              <mxPoint x="590" y="240" />
              <mxPoint x="590" y="240" />
            </Array>
          </mxGeometry>
        </mxCell>
        <mxCell id="5Jcjkd6dHf1wGy3vwL0o-16" value="Job Combobox ActionListener" style="edgeLabel;html=1;align=center;verticalAlign=middle;resizable=0;points=[];" parent="5Jcjkd6dHf1wGy3vwL0o-15" vertex="1" connectable="0">
          <mxGeometry x="-0.2164" relative="1" as="geometry">
            <mxPoint x="23" y="-10" as="offset" />
          </mxGeometry>
        </mxCell>
        <mxCell id="5Jcjkd6dHf1wGy3vwL0o-20" style="edgeStyle=orthogonalEdgeStyle;rounded=0;orthogonalLoop=1;jettySize=auto;html=1;" parent="1" source="5Jcjkd6dHf1wGy3vwL0o-2" target="3nuBFxr9cyL0pnOWT2aG-5" edge="1">
          <mxGeometry relative="1" as="geometry">
            <Array as="points">
              <mxPoint x="640" y="270" />
              <mxPoint x="640" y="270" />
            </Array>
          </mxGeometry>
        </mxCell>
        <mxCell id="5Jcjkd6dHf1wGy3vwL0o-21" value="Display Chosen Job Details" style="edgeLabel;html=1;align=center;verticalAlign=middle;resizable=0;points=[];" parent="5Jcjkd6dHf1wGy3vwL0o-20" vertex="1" connectable="0">
          <mxGeometry x="-0.1078" relative="1" as="geometry">
            <mxPoint x="-9" y="-10" as="offset" />
          </mxGeometry>
        </mxCell>
        <mxCell id="5Jcjkd6dHf1wGy3vwL0o-25" style="edgeStyle=orthogonalEdgeStyle;rounded=0;orthogonalLoop=1;jettySize=auto;html=1;" parent="1" source="3nuBFxr9cyL0pnOWT2aG-2" edge="1">
          <mxGeometry relative="1" as="geometry">
            <Array as="points">
              <mxPoint x="410" y="305" />
              <mxPoint x="410" y="305" />
            </Array>
            <mxPoint x="514" y="305" as="targetPoint" />
          </mxGeometry>
        </mxCell>
        <mxCell id="5Jcjkd6dHf1wGy3vwL0o-26" value="Applying the job&amp;nbsp;" style="edgeLabel;html=1;align=center;verticalAlign=middle;resizable=0;points=[];" parent="5Jcjkd6dHf1wGy3vwL0o-25" vertex="1" connectable="0">
          <mxGeometry x="0.0687" y="1" relative="1" as="geometry">
            <mxPoint x="-16" y="-9" as="offset" />
          </mxGeometry>
        </mxCell>
        <mxCell id="5Jcjkd6dHf1wGy3vwL0o-27" value="" style="shape=umlLifeline;participant=umlActor;perimeter=lifelinePerimeter;whiteSpace=wrap;html=1;container=1;collapsible=0;recursiveResize=0;verticalAlign=top;spacingTop=36;outlineConnect=0;" parent="1" vertex="1">
          <mxGeometry x="80" y="130" width="20" height="300" as="geometry" />
        </mxCell>
        <mxCell id="5Jcjkd6dHf1wGy3vwL0o-28" style="edgeStyle=orthogonalEdgeStyle;rounded=0;orthogonalLoop=1;jettySize=auto;html=1;" parent="1" source="3nuBFxr9cyL0pnOWT2aG-6" edge="1">
          <mxGeometry relative="1" as="geometry">
            <Array as="points">
              <mxPoint x="734" y="313" />
            </Array>
            <mxPoint x="734" y="313" as="targetPoint" />
          </mxGeometry>
        </mxCell>
        <mxCell id="5Jcjkd6dHf1wGy3vwL0o-29" value="Apply Button ActionListener" style="edgeLabel;html=1;align=center;verticalAlign=middle;resizable=0;points=[];" parent="5Jcjkd6dHf1wGy3vwL0o-28" vertex="1" connectable="0">
          <mxGeometry x="0.1691" y="2" relative="1" as="geometry">
            <mxPoint as="offset" />
          </mxGeometry>
        </mxCell>
        <mxCell id="2a_J3IM7NlbcsU2bG1tm-3" value="&amp;lt;&amp;lt;&amp;lt;creates&amp;gt;&amp;gt;&amp;gt;" style="edgeStyle=orthogonalEdgeStyle;rounded=0;orthogonalLoop=1;jettySize=auto;html=1;" edge="1" parent="1" source="5Jcjkd6dHf1wGy3vwL0o-2">
          <mxGeometry x="-0.0435" y="10" relative="1" as="geometry">
            <mxPoint x="860" y="310.0000000000001" as="targetPoint" />
            <Array as="points">
              <mxPoint x="770" y="310" />
              <mxPoint x="770" y="310" />
            </Array>
            <mxPoint as="offset" />
          </mxGeometry>
        </mxCell>
        <mxCell id="2a_J3IM7NlbcsU2bG1tm-4" value="Concrete Candidate" style="html=1;" vertex="1" parent="1">
          <mxGeometry x="860" y="290" width="110" height="50" as="geometry" />
        </mxCell>
        <mxCell id="2a_J3IM7NlbcsU2bG1tm-9" value="return" style="html=1;verticalAlign=bottom;endArrow=open;dashed=1;endSize=8;" edge="1" parent="1">
          <mxGeometry relative="1" as="geometry">
            <mxPoint x="860" y="330" as="sourcePoint" />
            <mxPoint x="750" y="330" as="targetPoint" />
          </mxGeometry>
        </mxCell>
        <mxCell id="2a_J3IM7NlbcsU2bG1tm-10" value="return" style="html=1;verticalAlign=bottom;endArrow=open;dashed=1;endSize=8;" edge="1" parent="1">
          <mxGeometry relative="1" as="geometry">
            <mxPoint x="735" y="330.0000000000001" as="sourcePoint" />
            <mxPoint x="520" y="330" as="targetPoint" />
          </mxGeometry>
        </mxCell>
        <mxCell id="2a_J3IM7NlbcsU2bG1tm-11" value="return" style="html=1;verticalAlign=bottom;endArrow=open;dashed=1;endSize=8;" edge="1" parent="1" target="3nuBFxr9cyL0pnOWT2aG-1">
          <mxGeometry relative="1" as="geometry">
            <mxPoint x="520" y="330.0000000000001" as="sourcePoint" />
            <mxPoint x="220" y="330" as="targetPoint" />
          </mxGeometry>
        </mxCell>
      </root>
    </mxGraphModel>
  </diagram>
</mxfile>
